<mxfile host="app.diagrams.net" modified="2023-06-19T05:00:22.537Z" agent="Mozilla/5.0 (Windows NT 10.0; Win64; x64) AppleWebKit/537.36 (KHTML, like Gecko) Chrome/113.0.0.0 Safari/537.36 Edg/113.0.1774.57" etag="SS5F3lsqArXPudc055CG" version="21.4.0" type="github">
  <diagram name="Page-1" id="2YBvvXClWsGukQMizWep">
    <mxGraphModel dx="1900" dy="978" grid="1" gridSize="10" guides="1" tooltips="1" connect="1" arrows="1" fold="1" page="1" pageScale="1" pageWidth="850" pageHeight="1100" math="0" shadow="0">
      <root>
        <mxCell id="0" />
        <mxCell id="1" parent="0" />
        <mxCell id="HtMYwvInf2GWWzEo8MSv-63" value="" style="edgeStyle=elbowEdgeStyle;rounded=0;orthogonalLoop=1;jettySize=auto;html=1;elbow=vertical;curved=0;" parent="1" edge="1">
          <mxGeometry relative="1" as="geometry">
            <mxPoint x="523.0000000000005" y="823.1538461538462" as="sourcePoint" />
            <mxPoint x="1112" y="823.1538461538462" as="targetPoint" />
          </mxGeometry>
        </mxCell>
        <mxCell id="HtMYwvInf2GWWzEo8MSv-79" value="Send" style="edgeLabel;html=1;align=center;verticalAlign=middle;resizable=0;points=[];" parent="HtMYwvInf2GWWzEo8MSv-63" vertex="1" connectable="0">
          <mxGeometry x="-0.2085" relative="1" as="geometry">
            <mxPoint as="offset" />
          </mxGeometry>
        </mxCell>
        <mxCell id="aM9ryv3xv72pqoxQDRHE-5" value="Services Task" style="shape=umlLifeline;perimeter=lifelinePerimeter;whiteSpace=wrap;html=1;container=0;dropTarget=0;collapsible=0;recursiveResize=0;outlineConnect=0;portConstraint=eastwest;newEdgeStyle={&quot;edgeStyle&quot;:&quot;elbowEdgeStyle&quot;,&quot;elbow&quot;:&quot;vertical&quot;,&quot;curved&quot;:0,&quot;rounded&quot;:0};" parent="1" vertex="1">
          <mxGeometry x="468" y="8" width="100" height="1512" as="geometry" />
        </mxCell>
        <mxCell id="aM9ryv3xv72pqoxQDRHE-6" value="" style="html=1;points=[];perimeter=orthogonalPerimeter;outlineConnect=0;targetShapes=umlLifeline;portConstraint=eastwest;newEdgeStyle={&quot;edgeStyle&quot;:&quot;elbowEdgeStyle&quot;,&quot;elbow&quot;:&quot;vertical&quot;,&quot;curved&quot;:0,&quot;rounded&quot;:0};" parent="aM9ryv3xv72pqoxQDRHE-5" vertex="1">
          <mxGeometry x="45" y="260" width="10" height="390" as="geometry" />
        </mxCell>
        <mxCell id="HtMYwvInf2GWWzEo8MSv-47" value="" style="html=1;points=[];perimeter=orthogonalPerimeter;outlineConnect=0;targetShapes=umlLifeline;portConstraint=eastwest;newEdgeStyle={&quot;edgeStyle&quot;:&quot;elbowEdgeStyle&quot;,&quot;elbow&quot;:&quot;vertical&quot;,&quot;curved&quot;:0,&quot;rounded&quot;:0};" parent="aM9ryv3xv72pqoxQDRHE-5" vertex="1">
          <mxGeometry x="45" y="733" width="10" height="104" as="geometry" />
        </mxCell>
        <mxCell id="HtMYwvInf2GWWzEo8MSv-48" value="" style="html=1;points=[];perimeter=orthogonalPerimeter;outlineConnect=0;targetShapes=umlLifeline;portConstraint=eastwest;newEdgeStyle={&quot;edgeStyle&quot;:&quot;elbowEdgeStyle&quot;,&quot;elbow&quot;:&quot;vertical&quot;,&quot;curved&quot;:0,&quot;rounded&quot;:0};" parent="aM9ryv3xv72pqoxQDRHE-5" vertex="1">
          <mxGeometry x="45" y="1152" width="10" height="120" as="geometry" />
        </mxCell>
        <mxCell id="HtMYwvInf2GWWzEo8MSv-53" value="" style="html=1;points=[];perimeter=orthogonalPerimeter;outlineConnect=0;targetShapes=umlLifeline;portConstraint=eastwest;newEdgeStyle={&quot;edgeStyle&quot;:&quot;elbowEdgeStyle&quot;,&quot;elbow&quot;:&quot;vertical&quot;,&quot;curved&quot;:0,&quot;rounded&quot;:0};" parent="aM9ryv3xv72pqoxQDRHE-5" vertex="1">
          <mxGeometry x="45" y="1357" width="10" height="112" as="geometry" />
        </mxCell>
        <mxCell id="HtMYwvInf2GWWzEo8MSv-73" value="3.Build&amp;nbsp;XML" style="edgeStyle=segmentEdgeStyle;endArrow=classic;html=1;curved=0;rounded=0;endSize=8;startSize=8;" parent="aM9ryv3xv72pqoxQDRHE-5" edge="1">
          <mxGeometry x="0.0471" y="50" width="50" height="50" relative="1" as="geometry">
            <mxPoint x="55" y="395" as="sourcePoint" />
            <mxPoint x="55" y="415" as="targetPoint" />
            <Array as="points">
              <mxPoint x="102" y="395" />
              <mxPoint x="102" y="415" />
            </Array>
            <mxPoint as="offset" />
          </mxGeometry>
        </mxCell>
        <mxCell id="HtMYwvInf2GWWzEo8MSv-72" value="&lt;span style=&quot;color: rgb(0, 0, 0); font-family: Helvetica; font-size: 11px; font-style: normal; font-variant-ligatures: normal; font-variant-caps: normal; font-weight: 400; letter-spacing: normal; orphans: 2; text-align: center; text-indent: 0px; text-transform: none; widows: 2; word-spacing: 0px; -webkit-text-stroke-width: 0px; background-color: rgb(255, 255, 255); text-decoration-thickness: initial; text-decoration-style: initial; text-decoration-color: initial; float: none; display: inline !important;&quot;&gt;2.Perform necessary validation&lt;/span&gt;&lt;br&gt;(TaxInvoiceValidation)" style="edgeStyle=segmentEdgeStyle;endArrow=classic;html=1;curved=0;rounded=0;endSize=8;startSize=8;" parent="aM9ryv3xv72pqoxQDRHE-5" edge="1">
          <mxGeometry y="90" width="50" height="50" relative="1" as="geometry">
            <mxPoint x="55" y="354" as="sourcePoint" />
            <mxPoint x="55" y="374" as="targetPoint" />
            <Array as="points">
              <mxPoint x="92" y="354" />
              <mxPoint x="92" y="374" />
            </Array>
            <mxPoint as="offset" />
          </mxGeometry>
        </mxCell>
        <mxCell id="HtMYwvInf2GWWzEo8MSv-78" value="4. Perform XSD validation&lt;br&gt;(GenerateInvoiceRequestPayloadValidation)" style="edgeStyle=segmentEdgeStyle;endArrow=classic;html=1;curved=0;rounded=0;endSize=8;startSize=8;" parent="aM9ryv3xv72pqoxQDRHE-5" edge="1">
          <mxGeometry x="0.0526" y="115" width="50" height="50" relative="1" as="geometry">
            <mxPoint x="55" y="438" as="sourcePoint" />
            <mxPoint x="55" y="458" as="targetPoint" />
            <Array as="points">
              <mxPoint x="112" y="438" />
              <mxPoint x="112" y="458" />
            </Array>
            <mxPoint as="offset" />
          </mxGeometry>
        </mxCell>
        <mxCell id="HtMYwvInf2GWWzEo8MSv-114" value="2.Process GEI message" style="edgeStyle=segmentEdgeStyle;endArrow=classic;html=1;curved=0;rounded=0;endSize=8;startSize=8;exitX=1;exitY=0.163;exitDx=0;exitDy=0;exitPerimeter=0;" parent="aM9ryv3xv72pqoxQDRHE-5" edge="1">
          <mxGeometry x="0.037" y="75" width="50" height="50" relative="1" as="geometry">
            <mxPoint x="55" y="1409.3000000000002" as="sourcePoint" />
            <mxPoint x="55" y="1422.0000000000002" as="targetPoint" />
            <Array as="points">
              <mxPoint x="140" y="1402" />
              <mxPoint x="140" y="1422" />
            </Array>
            <mxPoint y="-1" as="offset" />
          </mxGeometry>
        </mxCell>
        <mxCell id="HtMYwvInf2GWWzEo8MSv-123" value="2.Generate GEI message containing&amp;nbsp;Universal Event XML" style="edgeStyle=segmentEdgeStyle;endArrow=classic;html=1;curved=0;rounded=0;endSize=8;startSize=8;" parent="aM9ryv3xv72pqoxQDRHE-5" edge="1">
          <mxGeometry x="0.0351" y="150" width="50" height="50" relative="1" as="geometry">
            <mxPoint x="55" y="1210.0000000000002" as="sourcePoint" />
            <mxPoint x="55" y="1230.0000000000002" as="targetPoint" />
            <Array as="points">
              <mxPoint x="102" y="1210" />
              <mxPoint x="102" y="1230" />
            </Array>
            <mxPoint as="offset" />
          </mxGeometry>
        </mxCell>
        <mxCell id="QBuPi1NRq2ITQ3zSXP_t-20" value="5. Batch Invoice and Generate Submit ID" style="edgeStyle=segmentEdgeStyle;endArrow=classic;html=1;curved=0;rounded=0;endSize=8;startSize=8;" edge="1" parent="aM9ryv3xv72pqoxQDRHE-5">
          <mxGeometry x="0.0281" y="112" width="50" height="50" relative="1" as="geometry">
            <mxPoint x="55" y="490" as="sourcePoint" />
            <mxPoint x="55" y="510.0526315789475" as="targetPoint" />
            <Array as="points">
              <mxPoint x="122" y="490" />
              <mxPoint x="122" y="510" />
            </Array>
            <mxPoint as="offset" />
          </mxGeometry>
        </mxCell>
        <mxCell id="QBuPi1NRq2ITQ3zSXP_t-26" value="6.&amp;nbsp;Generate GEI message&lt;div style=&quot;border-color: var(--border-color);&quot;&gt;• Message Type: GEI - GlobalElectronicInvoicing&lt;/div&gt;&lt;div style=&quot;border-color: var(--border-color);&quot;&gt;• Message Sub Type: GEN - Generate Invoice Request&lt;/div&gt;" style="edgeStyle=segmentEdgeStyle;endArrow=classic;html=1;curved=0;rounded=0;endSize=8;startSize=8;align=left;" edge="1" parent="aM9ryv3xv72pqoxQDRHE-5" source="aM9ryv3xv72pqoxQDRHE-6" target="aM9ryv3xv72pqoxQDRHE-6">
          <mxGeometry x="-0.0005" y="15" width="50" height="50" relative="1" as="geometry">
            <mxPoint x="52" y="532.05" as="sourcePoint" />
            <mxPoint x="52" y="552.1026315789475" as="targetPoint" />
            <Array as="points">
              <mxPoint x="132" y="532" />
              <mxPoint x="132" y="552" />
            </Array>
            <mxPoint as="offset" />
          </mxGeometry>
        </mxCell>
        <mxCell id="QBuPi1NRq2ITQ3zSXP_t-27" value="7. Update e-Reporting Status&lt;br style=&quot;border-color: var(--border-color); text-align: center;&quot;&gt;&lt;span style=&quot;text-align: center;&quot;&gt;of AR Invoice(s) / Credit Note(s)&amp;nbsp;&lt;/span&gt;&lt;br style=&quot;border-color: var(--border-color); text-align: center;&quot;&gt;&lt;span style=&quot;text-align: center;&quot;&gt;to &quot;SNT&quot;&lt;/span&gt;" style="edgeStyle=segmentEdgeStyle;endArrow=classic;html=1;curved=0;rounded=0;endSize=8;startSize=8;align=left;" edge="1" parent="aM9ryv3xv72pqoxQDRHE-5" source="aM9ryv3xv72pqoxQDRHE-6" target="aM9ryv3xv72pqoxQDRHE-6">
          <mxGeometry x="-0.0005" y="15" width="50" height="50" relative="1" as="geometry">
            <mxPoint x="62" y="582" as="sourcePoint" />
            <mxPoint x="62" y="602" as="targetPoint" />
            <Array as="points">
              <mxPoint x="142" y="582" />
              <mxPoint x="142" y="602" />
            </Array>
            <mxPoint as="offset" />
          </mxGeometry>
        </mxCell>
        <mxCell id="HtMYwvInf2GWWzEo8MSv-1" value="User" style="shape=umlActor;verticalLabelPosition=bottom;verticalAlign=top;html=1;outlineConnect=0;" parent="1" vertex="1">
          <mxGeometry x="18" y="80" width="30" height="60" as="geometry" />
        </mxCell>
        <mxCell id="aM9ryv3xv72pqoxQDRHE-3" value="" style="html=1;verticalAlign=bottom;startArrow=oval;endArrow=block;startSize=8;edgeStyle=elbowEdgeStyle;elbow=vertical;curved=0;rounded=0;" parent="1" target="HtMYwvInf2GWWzEo8MSv-13" edge="1">
          <mxGeometry x="0.0116" relative="1" as="geometry">
            <mxPoint x="49" y="99" as="sourcePoint" />
            <mxPoint x="254" y="174" as="targetPoint" />
            <Array as="points">
              <mxPoint x="209" y="99" />
              <mxPoint x="249" y="174" />
            </Array>
            <mxPoint as="offset" />
          </mxGeometry>
        </mxCell>
        <mxCell id="HtMYwvInf2GWWzEo8MSv-35" value="Create single or multiple&amp;nbsp;&lt;br style=&quot;border-color: var(--border-color);&quot;&gt;AR Invoice(s) / Credit Note(s)" style="edgeLabel;html=1;align=center;verticalAlign=middle;resizable=0;points=[];" parent="aM9ryv3xv72pqoxQDRHE-3" vertex="1" connectable="0">
          <mxGeometry x="0.1465" relative="1" as="geometry">
            <mxPoint x="-23" y="-1" as="offset" />
          </mxGeometry>
        </mxCell>
        <mxCell id="HtMYwvInf2GWWzEo8MSv-2" value="DB" style="shape=umlLifeline;perimeter=lifelinePerimeter;whiteSpace=wrap;html=1;container=0;dropTarget=0;collapsible=0;recursiveResize=0;outlineConnect=0;portConstraint=eastwest;newEdgeStyle={&quot;edgeStyle&quot;:&quot;elbowEdgeStyle&quot;,&quot;elbow&quot;:&quot;vertical&quot;,&quot;curved&quot;:0,&quot;rounded&quot;:0};" parent="1" vertex="1">
          <mxGeometry x="860" y="8" width="100" height="1511" as="geometry" />
        </mxCell>
        <mxCell id="HtMYwvInf2GWWzEo8MSv-3" value="" style="html=1;points=[];perimeter=orthogonalPerimeter;outlineConnect=0;targetShapes=umlLifeline;portConstraint=eastwest;newEdgeStyle={&quot;edgeStyle&quot;:&quot;elbowEdgeStyle&quot;,&quot;elbow&quot;:&quot;vertical&quot;,&quot;curved&quot;:0,&quot;rounded&quot;:0};" parent="HtMYwvInf2GWWzEo8MSv-2" vertex="1">
          <mxGeometry x="45" y="160" width="10" height="47" as="geometry" />
        </mxCell>
        <mxCell id="HtMYwvInf2GWWzEo8MSv-84" value="" style="html=1;points=[];perimeter=orthogonalPerimeter;outlineConnect=0;targetShapes=umlLifeline;portConstraint=eastwest;newEdgeStyle={&quot;edgeStyle&quot;:&quot;elbowEdgeStyle&quot;,&quot;elbow&quot;:&quot;vertical&quot;,&quot;curved&quot;:0,&quot;rounded&quot;:0};" parent="HtMYwvInf2GWWzEo8MSv-2" vertex="1">
          <mxGeometry x="45" y="732" width="10" height="73" as="geometry" />
        </mxCell>
        <mxCell id="HtMYwvInf2GWWzEo8MSv-93" value="" style="html=1;points=[];perimeter=orthogonalPerimeter;outlineConnect=0;targetShapes=umlLifeline;portConstraint=eastwest;newEdgeStyle={&quot;edgeStyle&quot;:&quot;elbowEdgeStyle&quot;,&quot;elbow&quot;:&quot;vertical&quot;,&quot;curved&quot;:0,&quot;rounded&quot;:0};" parent="HtMYwvInf2GWWzEo8MSv-2" vertex="1">
          <mxGeometry x="45" y="1153" width="10" height="118" as="geometry" />
        </mxCell>
        <mxCell id="HtMYwvInf2GWWzEo8MSv-117" value="" style="html=1;points=[];perimeter=orthogonalPerimeter;outlineConnect=0;targetShapes=umlLifeline;portConstraint=eastwest;newEdgeStyle={&quot;edgeStyle&quot;:&quot;elbowEdgeStyle&quot;,&quot;elbow&quot;:&quot;vertical&quot;,&quot;curved&quot;:0,&quot;rounded&quot;:0};" parent="HtMYwvInf2GWWzEo8MSv-2" vertex="1">
          <mxGeometry x="45" y="1356" width="10" height="112" as="geometry" />
        </mxCell>
        <mxCell id="HtMYwvInf2GWWzEo8MSv-108" value="" style="html=1;points=[];perimeter=orthogonalPerimeter;outlineConnect=0;targetShapes=umlLifeline;portConstraint=eastwest;newEdgeStyle={&quot;edgeStyle&quot;:&quot;elbowEdgeStyle&quot;,&quot;elbow&quot;:&quot;vertical&quot;,&quot;curved&quot;:0,&quot;rounded&quot;:0};" parent="HtMYwvInf2GWWzEo8MSv-2" vertex="1">
          <mxGeometry x="45" y="1063" width="10" height="46" as="geometry" />
        </mxCell>
        <mxCell id="QBuPi1NRq2ITQ3zSXP_t-11" value="" style="html=1;points=[];perimeter=orthogonalPerimeter;outlineConnect=0;targetShapes=umlLifeline;portConstraint=eastwest;newEdgeStyle={&quot;edgeStyle&quot;:&quot;elbowEdgeStyle&quot;,&quot;elbow&quot;:&quot;vertical&quot;,&quot;curved&quot;:0,&quot;rounded&quot;:0};" vertex="1" parent="HtMYwvInf2GWWzEo8MSv-2">
          <mxGeometry x="45" y="260" width="10" height="390" as="geometry" />
        </mxCell>
        <mxCell id="HtMYwvInf2GWWzEo8MSv-8" value="NTS" style="shape=umlLifeline;perimeter=lifelinePerimeter;whiteSpace=wrap;html=1;container=0;dropTarget=0;collapsible=0;recursiveResize=0;outlineConnect=0;portConstraint=eastwest;newEdgeStyle={&quot;edgeStyle&quot;:&quot;elbowEdgeStyle&quot;,&quot;elbow&quot;:&quot;vertical&quot;,&quot;curved&quot;:0,&quot;rounded&quot;:0};" parent="1" vertex="1">
          <mxGeometry x="1426" y="7" width="100" height="1110" as="geometry" />
        </mxCell>
        <mxCell id="HtMYwvInf2GWWzEo8MSv-9" value="" style="html=1;points=[];perimeter=orthogonalPerimeter;outlineConnect=0;targetShapes=umlLifeline;portConstraint=eastwest;newEdgeStyle={&quot;edgeStyle&quot;:&quot;elbowEdgeStyle&quot;,&quot;elbow&quot;:&quot;vertical&quot;,&quot;curved&quot;:0,&quot;rounded&quot;:0};" parent="HtMYwvInf2GWWzEo8MSv-8" vertex="1">
          <mxGeometry x="45" y="799" width="10" height="311" as="geometry" />
        </mxCell>
        <mxCell id="HtMYwvInf2GWWzEo8MSv-10" value="XT" style="shape=umlLifeline;perimeter=lifelinePerimeter;whiteSpace=wrap;html=1;container=0;dropTarget=0;collapsible=0;recursiveResize=0;outlineConnect=0;portConstraint=eastwest;newEdgeStyle={&quot;edgeStyle&quot;:&quot;elbowEdgeStyle&quot;,&quot;elbow&quot;:&quot;vertical&quot;,&quot;curved&quot;:0,&quot;rounded&quot;:0};" parent="1" vertex="1">
          <mxGeometry x="1068" y="9" width="100" height="1110" as="geometry" />
        </mxCell>
        <mxCell id="HtMYwvInf2GWWzEo8MSv-11" value="" style="html=1;points=[];perimeter=orthogonalPerimeter;outlineConnect=0;targetShapes=umlLifeline;portConstraint=eastwest;newEdgeStyle={&quot;edgeStyle&quot;:&quot;elbowEdgeStyle&quot;,&quot;elbow&quot;:&quot;vertical&quot;,&quot;curved&quot;:0,&quot;rounded&quot;:0};" parent="HtMYwvInf2GWWzEo8MSv-10" vertex="1">
          <mxGeometry x="45" y="797" width="10" height="313" as="geometry" />
        </mxCell>
        <mxCell id="HtMYwvInf2GWWzEo8MSv-97" value="1. Encrypt and sign" style="edgeStyle=segmentEdgeStyle;endArrow=classic;html=1;curved=0;rounded=0;endSize=8;startSize=8;" parent="HtMYwvInf2GWWzEo8MSv-10" edge="1">
          <mxGeometry y="53" width="50" height="50" relative="1" as="geometry">
            <mxPoint x="55" y="899.0769230769229" as="sourcePoint" />
            <mxPoint x="55" y="919.0769230769229" as="targetPoint" />
            <Array as="points">
              <mxPoint x="120" y="899" />
              <mxPoint x="120" y="919" />
            </Array>
            <mxPoint as="offset" />
          </mxGeometry>
        </mxCell>
        <mxCell id="HtMYwvInf2GWWzEo8MSv-101" value="&amp;nbsp;2.Build &quot;SOAP Messages with&amp;nbsp;Attachments&quot;" style="edgeStyle=segmentEdgeStyle;endArrow=classic;html=1;curved=0;rounded=0;endSize=8;startSize=8;" parent="HtMYwvInf2GWWzEo8MSv-10" edge="1">
          <mxGeometry x="-0.0229" y="113" width="50" height="50" relative="1" as="geometry">
            <mxPoint x="55" y="942" as="sourcePoint" />
            <mxPoint x="55" y="962" as="targetPoint" />
            <Array as="points">
              <mxPoint x="130" y="942" />
              <mxPoint x="130" y="962" />
            </Array>
            <mxPoint as="offset" />
          </mxGeometry>
        </mxCell>
        <mxCell id="HtMYwvInf2GWWzEo8MSv-105" value="4. Process result, generate&amp;nbsp;Universal Event XML&amp;nbsp;" style="edgeStyle=segmentEdgeStyle;endArrow=classic;html=1;curved=0;rounded=0;endSize=8;startSize=8;" parent="HtMYwvInf2GWWzEo8MSv-10" edge="1">
          <mxGeometry x="-0.0006" y="128" width="50" height="50" relative="1" as="geometry">
            <mxPoint x="55" y="1030.076923076923" as="sourcePoint" />
            <mxPoint x="55" y="1050.076923076923" as="targetPoint" />
            <Array as="points">
              <mxPoint x="135" y="1030" />
              <mxPoint x="135" y="1050" />
            </Array>
            <mxPoint as="offset" />
          </mxGeometry>
        </mxCell>
        <mxCell id="HtMYwvInf2GWWzEo8MSv-12" value="CW1" style="shape=umlLifeline;perimeter=lifelinePerimeter;whiteSpace=wrap;html=1;container=0;dropTarget=0;collapsible=0;recursiveResize=0;outlineConnect=0;portConstraint=eastwest;newEdgeStyle={&quot;edgeStyle&quot;:&quot;elbowEdgeStyle&quot;,&quot;elbow&quot;:&quot;vertical&quot;,&quot;curved&quot;:0,&quot;rounded&quot;:0};" parent="1" vertex="1">
          <mxGeometry x="226" y="7" width="100" height="508" as="geometry" />
        </mxCell>
        <mxCell id="HtMYwvInf2GWWzEo8MSv-13" value="" style="html=1;points=[];perimeter=orthogonalPerimeter;outlineConnect=0;targetShapes=umlLifeline;portConstraint=eastwest;newEdgeStyle={&quot;edgeStyle&quot;:&quot;elbowEdgeStyle&quot;,&quot;elbow&quot;:&quot;vertical&quot;,&quot;curved&quot;:0,&quot;rounded&quot;:0};" parent="HtMYwvInf2GWWzEo8MSv-12" vertex="1">
          <mxGeometry x="45" y="80" width="10" height="130" as="geometry" />
        </mxCell>
        <mxCell id="QBuPi1NRq2ITQ3zSXP_t-10" value="2.Are AR Invoice(s) or Credit Note(s)&lt;br&gt;eligible for E-Invoicing?" style="edgeStyle=segmentEdgeStyle;endArrow=classic;html=1;curved=0;rounded=0;endSize=8;startSize=8;" edge="1" parent="HtMYwvInf2GWWzEo8MSv-12">
          <mxGeometry x="0.0816" y="100" width="50" height="50" relative="1" as="geometry">
            <mxPoint x="55" y="144.00000000000045" as="sourcePoint" />
            <mxPoint x="55" y="164.00000000000045" as="targetPoint" />
            <Array as="points">
              <mxPoint x="94" y="144" />
              <mxPoint x="94" y="164" />
            </Array>
            <mxPoint y="1" as="offset" />
          </mxGeometry>
        </mxCell>
        <mxCell id="QBuPi1NRq2ITQ3zSXP_t-19" value="1.Generate Issue ID" style="edgeStyle=segmentEdgeStyle;endArrow=classic;html=1;curved=0;rounded=0;endSize=8;startSize=8;" edge="1" parent="HtMYwvInf2GWWzEo8MSv-12">
          <mxGeometry y="56" width="50" height="50" relative="1" as="geometry">
            <mxPoint x="55" y="109" as="sourcePoint" />
            <mxPoint x="55" y="129" as="targetPoint" />
            <Array as="points">
              <mxPoint x="84" y="109" />
              <mxPoint x="84" y="129" />
            </Array>
            <mxPoint y="1" as="offset" />
          </mxGeometry>
        </mxCell>
        <mxCell id="HtMYwvInf2GWWzEo8MSv-55" value="EKR" style="ellipse;shape=cloud;whiteSpace=wrap;html=1;" parent="1" vertex="1">
          <mxGeometry x="435" y="361" width="70" height="50" as="geometry" />
        </mxCell>
        <mxCell id="HtMYwvInf2GWWzEo8MSv-57" value="EHO" style="ellipse;shape=cloud;whiteSpace=wrap;html=1;" parent="1" vertex="1">
          <mxGeometry x="433" y="765" width="70" height="50" as="geometry" />
        </mxCell>
        <mxCell id="HtMYwvInf2GWWzEo8MSv-59" value="THI / EHI" style="ellipse;shape=cloud;whiteSpace=wrap;html=1;" parent="1" vertex="1">
          <mxGeometry x="427" y="1198" width="80" height="50" as="geometry" />
        </mxCell>
        <mxCell id="HtMYwvInf2GWWzEo8MSv-60" value="UMI" style="ellipse;shape=cloud;whiteSpace=wrap;html=1;" parent="1" vertex="1">
          <mxGeometry x="436" y="1389" width="70" height="50" as="geometry" />
        </mxCell>
        <mxCell id="HtMYwvInf2GWWzEo8MSv-66" value="" style="edgeStyle=elbowEdgeStyle;rounded=0;orthogonalLoop=1;jettySize=auto;html=1;elbow=vertical;curved=0;" parent="1" source="aM9ryv3xv72pqoxQDRHE-6" target="QBuPi1NRq2ITQ3zSXP_t-11" edge="1">
          <mxGeometry x="0.1212" y="10" relative="1" as="geometry">
            <mxPoint x="523.0000000000005" y="301" as="sourcePoint" />
            <mxPoint x="873.0000000000005" y="301" as="targetPoint" />
            <Array as="points">
              <mxPoint x="849" y="301" />
              <mxPoint x="559" y="321" />
              <mxPoint x="819" y="331" />
              <mxPoint x="679" y="351" />
              <mxPoint x="779" y="451" />
              <mxPoint x="819" y="471" />
              <mxPoint x="839" y="381" />
              <mxPoint x="819" y="401" />
              <mxPoint x="854" y="341" />
              <mxPoint x="814" y="331" />
              <mxPoint x="614" y="281" />
              <mxPoint x="644" y="271" />
            </Array>
            <mxPoint as="offset" />
          </mxGeometry>
        </mxCell>
        <mxCell id="HtMYwvInf2GWWzEo8MSv-67" value="&lt;span style=&quot;color: rgb(0, 0, 0); font-family: Helvetica; font-size: 12px; font-style: normal; font-variant-ligatures: normal; font-variant-caps: normal; font-weight: 400; letter-spacing: normal; orphans: 2; text-align: center; text-indent: 0px; text-transform: none; widows: 2; word-spacing: 0px; -webkit-text-stroke-width: 0px; background-color: rgb(251, 251, 251); text-decoration-thickness: initial; text-decoration-style: initial; text-decoration-color: initial; float: none; display: inline !important;&quot;&gt;1.Obtain necessary&amp;nbsp;information for building XML&lt;br&gt;(Include certificate, Universaction Transaction XML......)&lt;br&gt;&lt;/span&gt;" style="edgeLabel;html=1;align=center;verticalAlign=middle;resizable=0;points=[];" parent="HtMYwvInf2GWWzEo8MSv-66" vertex="1" connectable="0">
          <mxGeometry x="-0.0421" y="1" relative="1" as="geometry">
            <mxPoint x="7" y="1" as="offset" />
          </mxGeometry>
        </mxCell>
        <mxCell id="HtMYwvInf2GWWzEo8MSv-76" value="" style="html=1;verticalAlign=bottom;endArrow=open;dashed=1;endSize=8;edgeStyle=elbowEdgeStyle;elbow=vertical;curved=0;rounded=0;" parent="1" source="QBuPi1NRq2ITQ3zSXP_t-11" edge="1" target="aM9ryv3xv72pqoxQDRHE-6">
          <mxGeometry x="0.0154" y="4" relative="1" as="geometry">
            <mxPoint x="884" y="331.6923076923076" as="sourcePoint" />
            <mxPoint x="529" y="331" as="targetPoint" />
            <Array as="points">
              <mxPoint x="760" y="330" />
            </Array>
            <mxPoint as="offset" />
          </mxGeometry>
        </mxCell>
        <mxCell id="QBuPi1NRq2ITQ3zSXP_t-15" value="Return" style="edgeLabel;html=1;align=center;verticalAlign=middle;resizable=0;points=[];" vertex="1" connectable="0" parent="HtMYwvInf2GWWzEo8MSv-76">
          <mxGeometry x="-0.0787" y="2" relative="1" as="geometry">
            <mxPoint x="1" as="offset" />
          </mxGeometry>
        </mxCell>
        <mxCell id="HtMYwvInf2GWWzEo8MSv-85" value="" style="edgeStyle=elbowEdgeStyle;rounded=0;orthogonalLoop=1;jettySize=auto;html=1;elbow=vertical;curved=0;" parent="1" target="HtMYwvInf2GWWzEo8MSv-84" edge="1" source="HtMYwvInf2GWWzEo8MSv-47">
          <mxGeometry x="0.1212" y="10" relative="1" as="geometry">
            <mxPoint x="523.0000000000005" y="762" as="sourcePoint" />
            <mxPoint x="873.0000000000005" y="762" as="targetPoint" />
            <Array as="points">
              <mxPoint x="839" y="762" />
            </Array>
            <mxPoint as="offset" />
          </mxGeometry>
        </mxCell>
        <mxCell id="HtMYwvInf2GWWzEo8MSv-86" value="1.Get EDI messages that can be sent" style="edgeLabel;html=1;align=center;verticalAlign=middle;resizable=0;points=[];" parent="HtMYwvInf2GWWzEo8MSv-85" vertex="1" connectable="0">
          <mxGeometry x="-0.0421" y="1" relative="1" as="geometry">
            <mxPoint x="7" y="1" as="offset" />
          </mxGeometry>
        </mxCell>
        <mxCell id="aM9ryv3xv72pqoxQDRHE-7" value="" style="html=1;verticalAlign=bottom;endArrow=block;edgeStyle=elbowEdgeStyle;elbow=vertical;curved=0;rounded=0;" parent="1" source="HtMYwvInf2GWWzEo8MSv-13" target="HtMYwvInf2GWWzEo8MSv-3" edge="1">
          <mxGeometry x="-0.0044" relative="1" as="geometry">
            <mxPoint x="281" y="192" as="sourcePoint" />
            <Array as="points">
              <mxPoint x="829" y="192" />
              <mxPoint x="739" y="276" />
              <mxPoint x="469" y="276" />
              <mxPoint x="399" y="276" />
              <mxPoint x="479" y="306" />
              <mxPoint x="444" y="246" />
            </Array>
            <mxPoint x="873" y="192" as="targetPoint" />
            <mxPoint as="offset" />
          </mxGeometry>
        </mxCell>
        <mxCell id="HtMYwvInf2GWWzEo8MSv-34" value="3.Update e-Reporting Status of AR Invoice(s) / Credit Note(s)&amp;nbsp;to &quot;QUE&quot; or &quot;PEN&quot;" style="edgeLabel;html=1;align=center;verticalAlign=middle;resizable=0;points=[];" parent="aM9ryv3xv72pqoxQDRHE-7" vertex="1" connectable="0">
          <mxGeometry x="0.2069" y="2" relative="1" as="geometry">
            <mxPoint x="-88" y="3" as="offset" />
          </mxGeometry>
        </mxCell>
        <mxCell id="HtMYwvInf2GWWzEo8MSv-87" value="" style="html=1;verticalAlign=bottom;endArrow=open;dashed=1;endSize=8;edgeStyle=elbowEdgeStyle;elbow=vertical;curved=0;rounded=0;" parent="1" source="HtMYwvInf2GWWzEo8MSv-84" edge="1" target="HtMYwvInf2GWWzEo8MSv-47">
          <mxGeometry x="-0.1077" y="-15" relative="1" as="geometry">
            <mxPoint x="884" y="791" as="sourcePoint" />
            <mxPoint x="529" y="791" as="targetPoint" />
            <mxPoint as="offset" />
            <Array as="points">
              <mxPoint x="790" y="791" />
              <mxPoint x="880" y="855" />
            </Array>
          </mxGeometry>
        </mxCell>
        <mxCell id="HtMYwvInf2GWWzEo8MSv-88" value="return" style="edgeLabel;html=1;align=center;verticalAlign=middle;resizable=0;points=[];" parent="HtMYwvInf2GWWzEo8MSv-87" vertex="1" connectable="0">
          <mxGeometry x="0.0732" y="1" relative="1" as="geometry">
            <mxPoint as="offset" />
          </mxGeometry>
        </mxCell>
        <mxCell id="HtMYwvInf2GWWzEo8MSv-91" value="" style="edgeStyle=elbowEdgeStyle;rounded=0;orthogonalLoop=1;jettySize=auto;html=1;elbow=vertical;curved=0;" parent="1" edge="1" target="HtMYwvInf2GWWzEo8MSv-93" source="HtMYwvInf2GWWzEo8MSv-48">
          <mxGeometry x="0.1212" y="10" relative="1" as="geometry">
            <mxPoint x="529" y="1176" as="sourcePoint" />
            <mxPoint x="875" y="1176" as="targetPoint" />
            <Array as="points">
              <mxPoint x="709" y="1176" />
            </Array>
            <mxPoint as="offset" />
          </mxGeometry>
        </mxCell>
        <mxCell id="HtMYwvInf2GWWzEo8MSv-92" value="1.Get the message returned by XT" style="edgeLabel;html=1;align=center;verticalAlign=middle;resizable=0;points=[];" parent="HtMYwvInf2GWWzEo8MSv-91" vertex="1" connectable="0">
          <mxGeometry x="-0.0421" y="1" relative="1" as="geometry">
            <mxPoint x="7" y="1" as="offset" />
          </mxGeometry>
        </mxCell>
        <mxCell id="HtMYwvInf2GWWzEo8MSv-94" value="" style="html=1;verticalAlign=bottom;endArrow=open;dashed=1;endSize=8;edgeStyle=elbowEdgeStyle;elbow=vertical;curved=0;rounded=0;" parent="1" edge="1">
          <mxGeometry x="-0.1077" y="-15" relative="1" as="geometry">
            <mxPoint x="1471" y="1016" as="sourcePoint" />
            <mxPoint x="1122" y="1016" as="targetPoint" />
            <mxPoint as="offset" />
            <Array as="points">
              <mxPoint x="1299" y="1016" />
            </Array>
          </mxGeometry>
        </mxCell>
        <mxCell id="HtMYwvInf2GWWzEo8MSv-95" value="return" style="edgeLabel;html=1;align=center;verticalAlign=middle;resizable=0;points=[];" parent="HtMYwvInf2GWWzEo8MSv-94" vertex="1" connectable="0">
          <mxGeometry x="0.0732" y="1" relative="1" as="geometry">
            <mxPoint as="offset" />
          </mxGeometry>
        </mxCell>
        <mxCell id="HtMYwvInf2GWWzEo8MSv-103" value="&amp;nbsp;3.Send &quot;SOAP Messages with&amp;nbsp;Attachments&quot;" style="edgeStyle=segmentEdgeStyle;endArrow=classic;html=1;curved=0;rounded=0;endSize=8;startSize=8;" parent="1" edge="1">
          <mxGeometry x="-0.0569" width="50" height="50" relative="1" as="geometry">
            <mxPoint x="1122" y="1003.0000000000002" as="sourcePoint" />
            <mxPoint x="1471" y="1003.0000000000002" as="targetPoint" />
            <Array as="points" />
            <mxPoint as="offset" />
          </mxGeometry>
        </mxCell>
        <mxCell id="HtMYwvInf2GWWzEo8MSv-109" value="5.Save" style="edgeStyle=elbowEdgeStyle;rounded=0;orthogonalLoop=1;jettySize=auto;html=1;elbow=vertical;curved=0;" parent="1" source="HtMYwvInf2GWWzEo8MSv-11" target="HtMYwvInf2GWWzEo8MSv-108" edge="1">
          <mxGeometry relative="1" as="geometry">
            <mxPoint x="1112" y="1090" as="sourcePoint" />
            <mxPoint x="883" y="1090.0000000000002" as="targetPoint" />
            <Array as="points">
              <mxPoint x="950" y="1100" />
              <mxPoint x="1019" y="1155" />
            </Array>
          </mxGeometry>
        </mxCell>
        <mxCell id="HtMYwvInf2GWWzEo8MSv-110" value="" style="html=1;verticalAlign=bottom;endArrow=open;dashed=1;endSize=8;edgeStyle=elbowEdgeStyle;elbow=vertical;curved=0;rounded=0;" parent="1" edge="1" target="HtMYwvInf2GWWzEo8MSv-48" source="HtMYwvInf2GWWzEo8MSv-93">
          <mxGeometry x="-0.1077" y="-15" relative="1" as="geometry">
            <mxPoint x="875" y="1195" as="sourcePoint" />
            <mxPoint x="529" y="1195" as="targetPoint" />
            <mxPoint as="offset" />
            <Array as="points">
              <mxPoint x="819" y="1195" />
              <mxPoint x="879" y="1185" />
            </Array>
          </mxGeometry>
        </mxCell>
        <mxCell id="HtMYwvInf2GWWzEo8MSv-111" value="return" style="edgeLabel;html=1;align=center;verticalAlign=middle;resizable=0;points=[];" parent="HtMYwvInf2GWWzEo8MSv-110" vertex="1" connectable="0">
          <mxGeometry x="0.0732" y="1" relative="1" as="geometry">
            <mxPoint y="-2" as="offset" />
          </mxGeometry>
        </mxCell>
        <mxCell id="HtMYwvInf2GWWzEo8MSv-115" value="" style="edgeStyle=segmentEdgeStyle;endArrow=classic;html=1;curved=0;rounded=0;endSize=8;startSize=8;" parent="1" edge="1" target="HtMYwvInf2GWWzEo8MSv-2">
          <mxGeometry x="-0.0778" y="-3" width="50" height="50" relative="1" as="geometry">
            <mxPoint x="523" y="1458" as="sourcePoint" />
            <mxPoint x="873" y="1458" as="targetPoint" />
            <Array as="points" />
            <mxPoint as="offset" />
          </mxGeometry>
        </mxCell>
        <mxCell id="HtMYwvInf2GWWzEo8MSv-116" value="3.Update e-Reporting Status&amp;nbsp;to &quot;DLV&quot;" style="edgeLabel;html=1;align=center;verticalAlign=middle;resizable=0;points=[];" parent="HtMYwvInf2GWWzEo8MSv-115" vertex="1" connectable="0">
          <mxGeometry x="-0.0972" y="-4" relative="1" as="geometry">
            <mxPoint x="26" y="-2" as="offset" />
          </mxGeometry>
        </mxCell>
        <mxCell id="HtMYwvInf2GWWzEo8MSv-119" value="" style="edgeStyle=elbowEdgeStyle;rounded=0;orthogonalLoop=1;jettySize=auto;html=1;elbow=vertical;curved=0;" parent="1" edge="1" target="HtMYwvInf2GWWzEo8MSv-117" source="HtMYwvInf2GWWzEo8MSv-53">
          <mxGeometry x="0.1212" y="10" relative="1" as="geometry">
            <mxPoint x="538" y="1379.38" as="sourcePoint" />
            <mxPoint x="884" y="1379.38" as="targetPoint" />
            <Array as="points">
              <mxPoint x="790" y="1381" />
              <mxPoint x="728" y="1269.38" />
            </Array>
            <mxPoint as="offset" />
          </mxGeometry>
        </mxCell>
        <mxCell id="HtMYwvInf2GWWzEo8MSv-120" value="1.Get GEI&amp;nbsp;message containing&amp;nbsp;Universal Event XML" style="edgeLabel;html=1;align=center;verticalAlign=middle;resizable=0;points=[];" parent="HtMYwvInf2GWWzEo8MSv-119" vertex="1" connectable="0">
          <mxGeometry x="-0.0421" y="1" relative="1" as="geometry">
            <mxPoint x="7" y="1" as="offset" />
          </mxGeometry>
        </mxCell>
        <mxCell id="HtMYwvInf2GWWzEo8MSv-121" value="" style="edgeStyle=elbowEdgeStyle;rounded=0;orthogonalLoop=1;jettySize=auto;html=1;elbow=vertical;curved=0;" parent="1" edge="1" target="HtMYwvInf2GWWzEo8MSv-93" source="HtMYwvInf2GWWzEo8MSv-48">
          <mxGeometry x="0.1212" y="10" relative="1" as="geometry">
            <mxPoint x="530" y="1260" as="sourcePoint" />
            <mxPoint x="884" y="1259" as="targetPoint" />
            <Array as="points">
              <mxPoint x="660" y="1261" />
              <mxPoint x="589" y="1311" />
              <mxPoint x="529" y="1311" />
            </Array>
            <mxPoint as="offset" />
          </mxGeometry>
        </mxCell>
        <mxCell id="HtMYwvInf2GWWzEo8MSv-122" value="3.Save" style="edgeLabel;html=1;align=center;verticalAlign=middle;resizable=0;points=[];" parent="HtMYwvInf2GWWzEo8MSv-121" vertex="1" connectable="0">
          <mxGeometry x="-0.0421" y="1" relative="1" as="geometry">
            <mxPoint x="7" y="1" as="offset" />
          </mxGeometry>
        </mxCell>
        <mxCell id="QBuPi1NRq2ITQ3zSXP_t-24" value="" style="edgeStyle=elbowEdgeStyle;rounded=0;orthogonalLoop=1;jettySize=auto;html=1;elbow=vertical;curved=0;" edge="1" parent="1" source="aM9ryv3xv72pqoxQDRHE-6" target="HtMYwvInf2GWWzEo8MSv-2">
          <mxGeometry relative="1" as="geometry">
            <mxPoint x="520" y="640" as="sourcePoint" />
            <mxPoint x="860" y="640" as="targetPoint" />
            <Array as="points">
              <mxPoint x="817" y="640" />
              <mxPoint x="865" y="637" />
              <mxPoint x="756" y="698" />
              <mxPoint x="806" y="736" />
              <mxPoint x="766" y="716" />
              <mxPoint x="806" y="736" />
              <mxPoint x="826" y="646" />
              <mxPoint x="806" y="666" />
              <mxPoint x="841" y="606" />
              <mxPoint x="801" y="596" />
              <mxPoint x="601" y="546" />
              <mxPoint x="631" y="536" />
            </Array>
          </mxGeometry>
        </mxCell>
        <mxCell id="QBuPi1NRq2ITQ3zSXP_t-25" value="8. Save" style="edgeLabel;html=1;align=center;verticalAlign=middle;resizable=0;points=[];" vertex="1" connectable="0" parent="QBuPi1NRq2ITQ3zSXP_t-24">
          <mxGeometry x="-0.0421" y="1" relative="1" as="geometry">
            <mxPoint x="-1" y="2" as="offset" />
          </mxGeometry>
        </mxCell>
      </root>
    </mxGraphModel>
  </diagram>
</mxfile>
